<?xml version="1.0" encoding="UTF-8"?>
<svg id="Layer_1" data-name="Layer 1" xmlns="http://www.w3.org/2000/svg" width="100" height="100" viewBox="0 0 100 100">
  <defs>
    <style>
      .cls-1 {
        fill: none;
        stroke: #000;
        stroke-miterlimit: 10;
      }
    </style>
  </defs>
  <line class="cls-1" x1="-.34" y1="100.5" x2="101.16" y2="-1"/>
  <line class="cls-1" x1="-10.34" y1="100.5" x2="91.16" y2="-1"/>
  <line class="cls-1" x1="-20.34" y1="100.5" x2="81.16" y2="-1"/>
  <line class="cls-1" x1="-30.34" y1="100.5" x2="71.16" y2="-1"/>
  <line class="cls-1" x1="-40.34" y1="100.5" x2="61.16" y2="-1"/>
  <line class="cls-1" x1="-50.34" y1="100.5" x2="51.16" y2="-1"/>
  <line class="cls-1" x1="-60.34" y1="100.5" x2="41.16" y2="-1"/>
  <line class="cls-1" x1="-70.34" y1="100.5" x2="31.16" y2="-1"/>
  <line class="cls-1" x1="-80.34" y1="100.5" x2="21.16" y2="-1"/>
  <line class="cls-1" x1="-90.34" y1="100.5" x2="11.16" y2="-1"/>
  <line class="cls-1" x1="9.66" y1="100.5" x2="111.16" y2="-1"/>
  <line class="cls-1" x1="19.66" y1="100.5" x2="121.16" y2="-1"/>
  <line class="cls-1" x1="29.66" y1="100.5" x2="131.16" y2="-1"/>
  <line class="cls-1" x1="39.66" y1="100.5" x2="141.16" y2="-1"/>
  <line class="cls-1" x1="49.66" y1="100.5" x2="151.16" y2="-1"/>
  <line class="cls-1" x1="59.66" y1="100.5" x2="161.16" y2="-1"/>
  <line class="cls-1" x1="69.66" y1="100.5" x2="171.16" y2="-1"/>
  <line class="cls-1" x1="79.66" y1="100.5" x2="181.16" y2="-1"/>
  <line class="cls-1" x1="89.66" y1="100.5" x2="191.16" y2="-1"/>
</svg>